#N canvas 613 129 1495 721 12;
#X obj -207 26 inlet~;
#X obj -209 596 outlet~;
#X obj -208 291 *~;
#X obj 530 57 vsl 15 128 0 1 0 0 empty empty Clean 0 -9 0 8 #fcfcfc
#000000 #000000 0 1;
#X obj -208 486 +~;
#X text -172 293 Clean signal gain;
#X text -667 196 comment;
#X obj 596 56 vsl 15 128 0 2000 0 0 empty empty Delay\ Time\ (ms) 0
-9 0 8 #fcfcfc #000000 #000000 0 1;
#X text 24 200 Send block to delay buffer;
#X obj 231 468 *~;
#X obj 595 209 vsl 15 128 0 1 0 0 empty empty Delay 0 -9 0 8 #fcfcfc
#000000 #000000 0 1;
#X text 273 470 Delay signal gain;
#X obj -183 214 delwrite~ delay_buffer 2000;
#X obj 25 270 delread~ delay_buffer;
#X obj -184 157 +~;
#X obj 530 211 vsl 15 128 0 1 0 0 empty empty Feedback 0 -9 0 8 #fcfcfc
#000000 #000000 0 1;
#X obj 232 139 *~;
#X floatatom 618 55 5 0 0 0 - - - 0;
#X floatatom 552 208 5 0 0 0 - - - 0;
#X floatatom 552 55 5 0 0 0 - - - 0;
#X floatatom 617 208 5 0 0 0 - - - 0;
#X text -167 495 Add delay buffer to output signal;
#X text 145 109 Feedback multiplier (post-gain);
#X connect 0 0 14 0;
#X connect 0 0 2 0;
#X connect 2 0 4 0;
#X connect 3 0 2 1;
#X connect 3 0 19 0;
#X connect 4 0 1 0;
#X connect 7 0 13 0;
#X connect 7 0 17 0;
#X connect 9 0 4 1;
#X connect 9 0 16 0;
#X connect 10 0 9 1;
#X connect 10 0 20 0;
#X connect 13 0 9 0;
#X connect 14 0 12 0;
#X connect 15 0 16 1;
#X connect 15 0 18 0;
#X connect 16 0 14 1;
#X coords 0 -1 1 1 150 330 1 520 18;
