#N canvas 855 169 1495 855 12;
#X obj -207 26 inlet~;
#X obj -209 596 outlet~;
#X obj -208 291 *~;
#X obj 530 57 vsl 15 128 0 1 0 0 empty empty Clean 0 -9 0 8 #fcfcfc
#000000 #000000 0 1;
#X obj -208 486 +~;
#X text -172 293 Clean signal gain;
#X obj 596 56 vsl 15 128 1000 23000 0 0 empty empty Delay\\\ Time\\\ (ms)
0 -9 0 8 #fcfcfc #000000 #000000 0 1;
#X text 24 200 Send block to delay buffer;
#X obj 231 468 *~;
#X obj 595 209 vsl 15 128 0 1 0 0 empty empty Delay 0 -9 0 8 #fcfcfc
#000000 #000000 0 1;
#X text 273 470 Delay signal gain;
#X obj -184 157 +~;
#X obj 530 211 vsl 15 128 0 1 0 0 empty empty Feedback 0 -9 0 8 #fcfcfc
#000000 #000000 0 1;
#X obj 232 139 *~;
#X floatatom 618 55 5 0 0 0 - - - 0;
#X floatatom 552 208 5 0 0 0 - - - 0;
#X floatatom 552 55 5 0 0 0 - - - 0;
#X floatatom 617 208 5 0 0 0 - - - 0;
#X text -167 495 Add delay buffer to output signal;
#X text 145 109 Feedback multiplier (post-gain);
#X obj -183 212 delwrite~ \$0-delay_buffer 2000;
#X obj 60 395 delread~ \$0-delay_buffer;
#X text -269 204 comment;
#X connect 0 0 11 0;
#X connect 0 0 2 0;
#X connect 2 0 4 0;
#X connect 3 0 2 1;
#X connect 3 0 16 0;
#X connect 4 0 1 0;
#X connect 6 0 14 0;
#X connect 6 0 21 0;
#X connect 8 0 4 1;
#X connect 8 0 13 0;
#X connect 9 0 8 1;
#X connect 9 0 17 0;
#X connect 11 0 20 0;
#X connect 12 0 13 1;
#X connect 12 0 15 0;
#X connect 13 0 11 1;
#X connect 21 0 8 0;
#X coords 0 -1 1 1 150 330 1 520 18;
