#N canvas -156 33 2560 989 12;
#X floatatom 866 307 5 0 0 0 - - - 0;
#X floatatom 865 370 5 0 0 0 - - - 0;
#X obj 933 94 vsl 15 128 0 100 0 0 empty empty Randomness 0 -9 0 8
#fcfcfc #000000 #000000 0 1;
#X obj 866 210 tgl 15 0 empty empty empty 17 7 0 10 #fcfcfc #000000
#000000 0 1;
#X text 494 94 Random number generator between 0 and 1 with limit based
on slider;
#X obj 866 277 random 100;
#X obj 865 337 expr $f1 / 100;
#X obj 866 244 metro 1 1 msec;
#X obj -160 728 delay_audio;
#X obj -159 497 adc~;
#X obj -46 2867 dac~;
#X obj -35 1266 +~;
#X obj -16 1118 signal_reconstructor;
#X text 290 2172 comment;
#X obj -160 680 +~;
#X obj -35 2614 +~;
#X obj -37 1331 lop~ 1000;
#X obj 701 1337 sigmund~;
#X obj -161 1079 *~ 0.3;
#X obj 867 864 vsl 15 128 0 3 0 0 empty empty empty 0 -9 0 10 #fcfcfc
#000000 #000000 0 1;
#X obj 867 517 envelope_follower;
#X floatatom 867 739 5 0 0 0 - - - 0;
#X floatatom 867 798 5 0 0 0 - - - 0;
#X obj 867 769 line;
#X obj 867 824 + 0.8;
#X obj -502 305;
#X obj -54 1297 +~;
#X obj 82 1414 delay_audio;
#X obj 81 1768 signal_reconstructor;
#X obj 64 1879 +~;
#X obj 159 1944 delay_audio;
#X obj 158 2298 signal_reconstructor;
#X obj -476 903;
#X text -150 392 Clean gain // Delay time // Feedback // Delay gain
;
#X floatatom 83 1287 5 0 0 0 - - - 0;
#X floatatom 195 1288 5 0 0 0 - - - 0;
#X floatatom 253 1288 5 0 0 0 - - - 0;
#X floatatom 137 1288 5 0 0 0 - - - 0;
#X obj -124 433 f 1;
#X obj -33 434 f 500;
#X obj 58 434 f 0;
#X obj 144 434 f 0.6;
#X obj -124 315 loadbang;
#X text -10 313 // Load default values below;
#X connect 0 0 6 0;
#X connect 2 0 5 1;
#X connect 3 0 7 0;
#X connect 5 0 0 0;
#X connect 6 0 1 0;
#X connect 7 0 5 0;
#X connect 8 0 18 0;
#X connect 9 0 14 0;
#X connect 9 0 20 0;
#X connect 11 0 26 1;
#X connect 12 0 11 1;
#X connect 12 1 11 1;
#X connect 12 2 11 1;
#X connect 12 4 11 1;
#X connect 12 7 11 1;
#X connect 12 8 11 1;
#X connect 12 9 11 1;
#X connect 14 0 8 0;
#X connect 15 0 10 1;
#X connect 15 0 10 0;
#X connect 16 0 15 0;
#X connect 16 0 27 0;
#X connect 18 0 26 0;
#X connect 18 0 12 0;
#X connect 19 0 12 1;
#X connect 20 0 21 0;
#X connect 21 0 23 0;
#X connect 22 0 24 0;
#X connect 23 0 22 0;
#X connect 24 0 19 0;
#X connect 26 0 16 0;
#X connect 27 0 28 0;
#X connect 28 0 29 1;
#X connect 28 2 29 1;
#X connect 28 4 29 1;
#X connect 28 6 29 1;
#X connect 28 8 29 1;
#X connect 29 0 30 0;
#X connect 30 0 31 0;
#X connect 31 0 15 1;
#X connect 31 4 15 1;
#X connect 31 8 15 1;
#X connect 38 0 8 1;
#X connect 39 0 8 2;
#X connect 40 0 8 3;
#X connect 41 0 8 4;
#X connect 42 0 38 0;
#X connect 42 0 39 0;
#X connect 42 0 40 0;
#X connect 42 0 41 0;
