#N canvas 1186 217 1120 607 12;
#X obj 296 190 route 0 1 2 3 4 5 6 7 8 9;
#X obj 23 283 unpack f f;
#X obj 105 284 unpack f f;
#X obj 188 284 unpack f f;
#X obj 270 285 unpack f f;
#X obj 354 284 unpack f f;
#X obj 437 284 unpack f f;
#X obj 521 284 unpack f f;
#X obj 605 284 unpack f f;
#X obj 690 284 unpack f f;
#X obj 772 284 unpack f f;
#X obj 296 52 inlet~;
#X obj 296 108 sigmund~ -npeaks 10 peaks;
#X floatatom 23 309 5 0 0 0 - - - 0;
#X floatatom 22 364 5 0 0 0 - - - 0;
#X floatatom 105 307 5 0 0 0 - - - 0;
#X floatatom 105 364 5 0 0 0 - - - 0;
#X floatatom 189 308 5 0 0 0 - - - 0;
#X floatatom 187 363 5 0 0 0 - - - 0;
#X floatatom 270 307 5 0 0 0 - - - 0;
#X floatatom 269 364 5 0 0 0 - - - 0;
#X floatatom 354 309 5 0 0 0 - - - 0;
#X floatatom 353 364 5 0 0 0 - - - 0;
#X floatatom 437 309 5 0 0 0 - - - 0;
#X floatatom 437 364 5 0 0 0 - - - 0;
#X floatatom 521 310 5 0 0 0 - - - 0;
#X floatatom 520 364 5 0 0 0 - - - 0;
#X floatatom 606 310 5 0 0 0 - - - 0;
#X floatatom 606 364 5 0 0 0 - - - 0;
#X floatatom 692 310 5 0 0 0 - - - 0;
#X floatatom 693 365 5 0 0 0 - - - 0;
#X floatatom 774 311 5 0 0 0 - - - 0;
#X floatatom 773 365 5 0 0 0 - - - 0;
#X obj 23 429 osc~;
#X text -84 106 // user peak frequencies as oscillator frequencies
;
#X obj 24 476 *~;
#X obj 106 428 osc~;
#X obj 107 475 *~;
#X obj 189 428 osc~;
#X obj 190 475 *~;
#X obj 270 427 osc~;
#X obj 271 474 *~;
#X obj 353 427 osc~;
#X obj 354 474 *~;
#X obj 439 426 osc~;
#X obj 440 473 *~;
#X obj 521 426 osc~;
#X obj 522 473 *~;
#X obj 607 425 osc~;
#X obj 608 472 *~;
#X obj 693 424 osc~;
#X obj 694 471 *~;
#X obj 773 427 osc~;
#X obj 774 474 *~;
#X obj -221 195;
#X text -143 333 // Frequencies;
#X text -144 357 // Amplitude;
#X obj 357 802;
#X obj 24 519 outlet~;
#X text 605 589 // As you add more of the harmonics \, the fidelity
gets closer to real \, but I think I like it better with less reconstruction
;
#X obj 521 519 outlet~;
#X obj 608 520 outlet~;
#X obj 695 521 outlet~;
#X obj 775 521 outlet~;
#X obj 190 516 outlet~;
#X obj 272 515 outlet~;
#X obj 355 517 outlet~;
#X obj 440 519 outlet~;
#X obj 107 520 outlet~;
#X floatatom 515 189 5 0 0 0 - - - 0;
#X obj -59 410 *~;
#X obj 105 333 *~;
#X obj 189 334 *~;
#X obj 23 336 *~;
#X obj 354 334 *~;
#X obj 437 333 *~;
#X obj 270 333 *~;
#X obj 521 335 *~;
#X obj 692 337 *~;
#X obj 774 337 *~;
#X obj 606 336 *~;
#X obj 515 41 vsl 15 128 0 3 0 0 empty empty empty 0 -9 0 10 #fcfcfc
#000000 #000000 0 1;
#X obj 515 10 inlet;
#X text 603 151 // This breaks down input signal to its peak harmonics
\, then reconstructs it by using a set of 10 oscillators with corresponding
frequency and amplitude.;
#X connect 0 0 1 0;
#X connect 0 1 2 0;
#X connect 0 2 3 0;
#X connect 0 3 4 0;
#X connect 0 4 5 0;
#X connect 0 5 6 0;
#X connect 0 6 7 0;
#X connect 0 7 8 0;
#X connect 0 8 9 0;
#X connect 0 9 10 0;
#X connect 1 0 13 0;
#X connect 1 1 14 0;
#X connect 2 0 15 0;
#X connect 2 1 16 0;
#X connect 3 0 17 0;
#X connect 3 1 18 0;
#X connect 4 0 19 0;
#X connect 4 1 20 0;
#X connect 5 0 21 0;
#X connect 5 1 22 0;
#X connect 6 0 23 0;
#X connect 6 1 24 0;
#X connect 7 0 25 0;
#X connect 7 1 26 0;
#X connect 8 0 27 0;
#X connect 8 1 28 0;
#X connect 9 0 29 0;
#X connect 9 1 30 0;
#X connect 10 0 31 0;
#X connect 10 1 32 0;
#X connect 11 0 12 0;
#X connect 12 0 0 0;
#X connect 13 0 73 0;
#X connect 14 0 35 1;
#X connect 15 0 71 0;
#X connect 16 0 37 1;
#X connect 17 0 72 0;
#X connect 18 0 39 1;
#X connect 19 0 76 0;
#X connect 20 0 41 1;
#X connect 21 0 74 0;
#X connect 22 0 43 1;
#X connect 23 0 75 0;
#X connect 24 0 45 1;
#X connect 25 0 77 0;
#X connect 26 0 47 1;
#X connect 27 0 80 0;
#X connect 28 0 49 1;
#X connect 29 0 78 0;
#X connect 30 0 51 1;
#X connect 31 0 79 0;
#X connect 32 0 53 1;
#X connect 33 0 35 0;
#X connect 35 0 58 0;
#X connect 36 0 37 0;
#X connect 37 0 68 0;
#X connect 38 0 39 0;
#X connect 39 0 64 0;
#X connect 40 0 41 0;
#X connect 41 0 65 0;
#X connect 42 0 43 0;
#X connect 43 0 66 0;
#X connect 44 0 45 0;
#X connect 45 0 67 0;
#X connect 46 0 47 0;
#X connect 47 0 60 0;
#X connect 48 0 49 0;
#X connect 49 0 61 0;
#X connect 50 0 51 0;
#X connect 51 0 62 0;
#X connect 52 0 53 0;
#X connect 53 0 63 0;
#X connect 69 0 73 1;
#X connect 69 0 71 1;
#X connect 69 0 72 1;
#X connect 69 0 76 1;
#X connect 69 0 74 1;
#X connect 69 0 75 1;
#X connect 69 0 77 1;
#X connect 69 0 80 1;
#X connect 69 0 78 1;
#X connect 69 0 79 1;
#X connect 71 0 36 0;
#X connect 72 0 38 0;
#X connect 73 0 33 0;
#X connect 74 0 42 0;
#X connect 75 0 44 0;
#X connect 76 0 40 0;
#X connect 77 0 46 0;
#X connect 78 0 50 0;
#X connect 79 0 52 0;
#X connect 80 0 48 0;
#X connect 81 0 69 0;
#X connect 82 0 81 0;
#X coords 0 -1 1 1 890 80 1 -5 305;
